<svg xmlns="http://www.w3.org/2000/svg" viewBox="0 0 640 640" width="512" height="512">
	<style>
		tspan { white-space:pre }
		.shp0 { fill: #ffffff } 
		.shp1 { fill: #fbbb00 } 
		.shp2 { fill: #518ef8 } 
		.shp3 { fill: #28b446 } 
		.shp4 { fill: #f14336 } 
	</style>
	<path id="Forma 1" class="shp0" d="M320 640C143.04 640 0 496.96 0 320C0 143.04 143.04 0 320 0C496.96 0 640 143.04 640 320C640 496.96 496.96 640 320 640Z" />
	<path id="Layer" class="shp1" d="M177.47 373.41L159.65 439.94L94.51 441.32C75.04 405.21 64 363.9 64 320C64 277.55 74.32 237.52 92.62 202.27L92.64 202.27L150.63 212.9L176.03 270.54C170.72 286.05 167.82 302.69 167.82 320C167.82 338.79 171.22 356.8 177.47 373.41Z" />
	<path id="Layer" class="shp2" d="M571.53 272.18C574.47 287.66 576 303.65 576 320C576 338.33 574.07 356.21 570.4 373.45C557.94 432.13 525.38 483.38 480.27 519.64L480.25 519.62L407.21 515.9L396.87 451.36C426.8 433.81 450.2 406.34 462.52 373.45L325.63 373.45L325.63 272.18L464.51 272.18L571.53 272.18L571.53 272.18Z" />
	<path id="Layer" class="shp3" d="M480.25 519.62L480.27 519.64C436.4 554.9 380.67 576 320 576C222.51 576 137.75 521.51 94.51 441.32L177.47 373.41C199.09 431.11 254.75 472.18 320 472.18C348.05 472.18 374.32 464.6 396.87 451.36L480.25 519.62Z" />
	<path id="Layer" class="shp4" d="M483.4 122.94L400.47 190.83C377.14 176.25 349.55 167.82 320 167.82C253.27 167.82 196.57 210.78 176.03 270.54L92.64 202.27L92.62 202.27C135.23 120.12 221.06 64 320 64C382.12 64 439.07 86.13 483.4 122.94Z" />
	<g id="Layer">
	</g>
	<g id="Layer">
	</g>
	<g id="Layer">
	</g>
	<g id="Layer">
	</g>
	<g id="Layer">
	</g>
	<g id="Layer">
	</g>
	<g id="Layer">
	</g>
	<g id="Layer">
	</g>
	<g id="Layer">
	</g>
	<g id="Layer">
	</g>
	<g id="Layer">
	</g>
	<g id="Layer">
	</g>
	<g id="Layer">
	</g>
	<g id="Layer">
	</g>
	<g id="Layer">
	</g>
</svg>